# xmcd CD database file generated by Grip 2.96
# 
# Track frame offsets:
#       150
#       19883
#       37313
#       55840
#       69020
#       81565
#       100923
#       118310
#       139833
#       158808
#       173565
# 
# Disc length: 2608 seconds
# 
# Revision: 0
# Processed by: cddbd v1.4b42PL1 Copyright (c) Steve Scherf et al.
# Submitted via: Grip 2.96
# 
DISCID=960a2e0b
DTITLE=Lunasa - the merry sisters of fate
DYEAR=1900
DGENRE=
TTITLE0=Aoibhneas
TTITLE1=Donogh and Mike's
TTITLE2=Killarney Boys of Pleasure
TTITLE3=The Merry Sisters of Fate
TTITLE4=Inion Ni Scannlain
TTITLE5=Casu
TTITLE6=Paistin Fionn
TTITLE7=The Minor Bee
TTITLE8=Scully's
TTITLE9=Return from Fingal
TTITLE10=Morning Nightcap
EXTD=
EXTT0=
EXTT1=
EXTT2=
EXTT3=
EXTT4=
EXTT5=
EXTT6=
EXTT7=
EXTT8=
EXTT9=
EXTT10=
PLAYORDER=
